<svg width="162" height="228" viewBox="0 0 162 228" fill="none" xmlns="http://www.w3.org/2000/svg"><path fill-rule="evenodd" clip-rule="evenodd" d="M44.9445 56.6257C44.9445 56.6257 57.8535 48.05 57.4465 29.8687C57.05 11.6846 45.4878 0.871704 45.4878 0.871704C45.4878 0.871704 30.6387 11.2856 31.0403 29.0325C31.4336 46.7482 44.9445 56.6257 44.9445 56.6257ZM60.7464 95.5984C60.7464 95.5984 76.4512 89.9943 81.7881 73.101C87.1146 56.2105 75.763 41.9557 75.763 41.9557C75.763 41.9557 61.6751 48.9925 56.1901 66.3277C50.7286 83.6678 60.7464 95.5984 60.7464 95.5984ZM32.9903 93.9734C32.9903 93.9734 38.9929 79.6056 28.6158 64.6764C18.2464 49.7339 2.67661 47.179 2.67661 47.179C2.67661 47.179 -3.89843 64.1359 6.22456 78.6974C16.3165 93.2673 32.9903 93.9734 32.9903 93.9734ZM75.7939 142.673C75.7939 142.673 64.3175 132.139 67.4825 114.229C70.6504 96.3306 83.7032 87.5041 83.7032 87.5041C83.7032 87.5041 96.7908 100.154 93.7372 117.609C90.647 135.051 75.7939 142.673 75.7939 142.673ZM107.208 117.341C107.208 117.341 95.0518 127.358 93.5731 145.508C92.1019 163.645 104.505 173.037 104.505 173.037C104.505 173.037 118.547 164.046 119.988 146.375C121.428 128.705 107.208 117.341 107.208 117.341ZM149.288 171.262C152.973 188.621 142.097 201.3 142.097 201.3C142.097 201.3 127.527 195.885 123.742 178.072C119.967 160.257 128.714 147.132 128.714 147.132C128.714 147.132 145.592 153.906 149.288 171.262ZM29.9399 103.539C44.2067 114.744 42.7113 130.262 42.7113 130.262C42.7113 130.262 26.5942 134.535 12.6552 123.599C-1.28097 112.674 0.0330788 94.4897 0.0330788 94.4897C0.0330788 94.4897 15.6393 92.331 29.9399 103.539ZM64.456 164.325C64.456 164.325 62.4867 148.852 46.0878 141.089C29.6841 133.35 14.9659 138.947 14.9659 138.947C14.9659 138.947 17.7137 156.993 33.6972 164.532C49.6806 172.071 64.456 164.325 64.456 164.325ZM66.1724 173.721C84.1217 176.119 90.6523 190.291 90.6523 190.291C90.6523 190.291 78.9339 202.19 61.4308 199.84C43.9408 197.498 35.8886 181.13 35.8886 181.13C35.8886 181.13 48.1996 171.318 66.1724 173.721ZM101.908 200.973C83.8111 200.759 72.7208 211.976 72.7208 211.976C72.7208 211.976 82.6355 227.253 100.288 227.507C117.926 227.709 128.134 214.483 128.134 214.483C128.134 214.483 119.997 201.199 101.908 200.973ZM40.9222 64.6409L49.4177 66.3314C48.737 69.8433 34.3951 153.361 161.079 214.314L157.387 222.13C24.2963 158.122 40.7491 65.5699 40.9222 64.6409Z" fill="url(#paint0_linear)"/><defs><linearGradient id="paint0_linear" x1="70.6897" y1="0.871704" x2="70.6897" y2="227.509" gradientUnits="userSpaceOnUse"><stop stop-color="#DCDDE0"/><stop offset="1" stop-color="#DCDDE0" stop-opacity="0"/></linearGradient></defs></svg>