<svg width="162" height="227" viewBox="0 0 162 227" fill="none" xmlns="http://www.w3.org/2000/svg"><path fill-rule="evenodd" clip-rule="evenodd" d="M117.056 55.8947C117.056 55.8947 104.147 47.319 104.554 29.1377C104.95 10.9536 116.512 0.140747 116.512 0.140747C116.512 0.140747 131.362 10.5546 130.96 28.3016C130.567 46.0173 117.056 55.8947 117.056 55.8947ZM101.256 94.8674C101.256 94.8674 85.551 89.2634 80.2141 72.3701C74.8877 55.4795 86.2392 41.2247 86.2392 41.2247C86.2392 41.2247 100.327 48.2615 105.812 65.5968C111.274 82.9369 101.256 94.8674 101.256 94.8674ZM129.012 93.2423C129.012 93.2423 123.009 78.8746 133.386 63.9453C143.756 49.0029 159.326 46.4479 159.326 46.4479C159.326 46.4479 165.901 63.4048 155.778 77.9664C145.686 92.5362 129.012 93.2423 129.012 93.2423ZM86.2084 141.942C86.2084 141.942 97.6848 131.408 94.5197 113.498C91.3518 95.5995 78.299 86.773 78.299 86.773C78.299 86.773 65.2114 99.423 68.265 116.878C71.3553 134.32 86.2084 141.942 86.2084 141.942ZM54.7962 116.61C54.7962 116.61 66.9525 126.627 68.4312 144.777C69.9023 162.914 57.499 172.306 57.499 172.306C57.499 172.306 43.4572 163.315 42.0166 145.644C40.576 127.974 54.7962 116.61 54.7962 116.61ZM12.7146 170.531C9.02896 187.89 19.9052 200.569 19.9052 200.569C19.9052 200.569 34.4752 195.154 38.2602 177.341C42.0348 159.526 33.2887 146.401 33.2887 146.401C33.2887 146.401 16.4105 153.175 12.7146 170.531ZM132.06 102.808C117.794 114.013 119.289 129.531 119.289 129.531C119.289 129.531 135.406 133.804 149.345 122.868C163.281 111.943 161.967 93.7586 161.967 93.7586C161.967 93.7586 146.361 91.5999 132.06 102.808ZM97.5463 163.593C97.5463 163.593 99.5155 148.121 115.914 140.358C132.318 132.619 147.036 138.216 147.036 138.216C147.036 138.216 144.289 156.261 128.305 163.801C112.322 171.34 97.5463 163.593 97.5463 163.593ZM95.8328 172.99C77.8836 175.388 71.353 189.56 71.353 189.56C71.353 189.56 83.0714 201.459 100.575 199.109C118.065 196.767 126.117 180.399 126.117 180.399C126.117 180.399 113.806 170.587 95.8328 172.99ZM60.0942 200.241C78.1911 200.028 89.2815 211.245 89.2815 211.245C89.2815 211.245 79.3667 226.522 61.7143 226.776C44.0759 226.978 33.8684 213.751 33.8684 213.751C33.8684 213.751 42.0049 200.468 60.0942 200.241ZM121.081 63.9098L112.586 65.6003C113.266 69.1122 127.608 152.63 0.923828 213.583L4.61658 221.399C137.707 157.391 121.254 64.8388 121.081 63.9098Z" fill="url(#paint0_linear)"/><defs><linearGradient id="paint0_linear" x1="71.6122" y1="0.140747" x2="71.6122" y2="226.778" gradientUnits="userSpaceOnUse"><stop stop-color="#DCDDE0"/><stop offset="1" stop-color="#DCDDE0" stop-opacity="0"/></linearGradient></defs></svg>